<mxfile host="app.diagrams.net" modified="2024-07-17T07:33:06.087Z" agent="Mozilla/5.0 (Windows NT 10.0; Win64; x64) AppleWebKit/537.36 (KHTML, like Gecko) Chrome/126.0.0.0 Safari/537.36" version="24.7.0" etag="B4OkhXO7qF0ALF-EcO0U" type="github">
  <diagram name="페이지-1" id="U5hOIRULGjmX3xc6Vnbz">
    <mxGraphModel>
      <root>
        <mxCell id="0" />
        <mxCell id="1" parent="0" />
      </root>
    </mxGraphModel>
  </diagram>
</mxfile>
